<svg xmlns="http://www.w3.org/2000/svg" viewBox="0 0 464 464"><defs><style>.cls-1{fill:#00945c;}.cls-2{fill:#e2dff4;}.cls-3{fill:#bebcdd;}.cls-4{fill:#f9f9f9;}.cls-5{fill:#bc8173;}.cls-6{fill:#865240;}.cls-7{fill:#31bebe;}.cls-8{fill:#fabe2c;}.cls-9{fill:#fed843;}.cls-10{fill:#5ed8d3;}.cls-11{fill:#ad77e3;}.cls-12{fill:#f66;}</style></defs><title>Asset 1</title><g id="Layer_2" data-name="Layer 2"><g id="Layer_1-2" data-name="Layer 1"><g id="Layer_2-2" data-name="Layer 2"><g id="Layer_1-2-2" data-name="Layer 1-2"><rect class="cls-1" width="464" height="464" rx="67" ry="67"/></g></g><path class="cls-2" d="M232,343.15a11,11,0,0,1-9.85-6.09C191.1,275,82.5,295.72,81.41,295.93a11,11,0,0,1-4.32-21.6,259.55,259.55,0,0,1,66.27-3.11c40,3.48,70.23,17.38,88.64,40.52,18.41-23.14,48.66-37,88.64-40.52a259.55,259.55,0,0,1,66.27,3.11,11,11,0,1,1-4.32,21.6c-1.09-.21-109.69-21-140.74,41.13a11,11,0,0,1-9.85,6.09Z"/><path class="cls-3" d="M241.85,337.06c31-62.1,139.65-41.34,140.74-41.13a11,11,0,1,0,4.32-21.6,259.55,259.55,0,0,0-66.27-3.11c-40,3.48-70.23,17.38-88.64,40.52v31.41a11,11,0,0,0,9.85-6.09Z"/><path class="cls-4" d="M401.31,341.21a11,11,0,0,0-5.53-7.07c-4.18-2.21-100-52.1-163.78-15.07-63.76-37-159.6,12.86-163.78,15.07a11,11,0,0,0-5.53,7.07l-9.9,39.6,11.7,8.3,122.25-31.75s47,71,88.74,0l135.73,35,.49-11.4Z"/><path class="cls-2" d="M411.21,380.81l-9.9-39.6a11,11,0,0,0-5.53-7.07c-4.18-2.21-100-52.1-163.78-15.07v78.42c21.89,0,41.41-13.53,51.3-32.33l123,33.46,5.43-17.68Z"/><path class="cls-5" d="M409,402.63a11.08,11.08,0,0,1-2.72-.34L283.3,371a58.07,58.07,0,0,1-102.6,0l-123,31.26a11,11,0,1,1-5.42-21.35l132.14-33.59a11,11,0,0,1,13.22,7.36,36,36,0,0,0,68.66,0,11,11,0,0,1,13.22-7.36L411.7,380.94A11,11,0,0,1,409,402.63Z"/><path class="cls-6" d="M283.3,371l123,31.26a11,11,0,1,0,5.42-21.35L279.55,347.35a11,11,0,0,0-13.22,7.36A35.83,35.83,0,0,1,232,379.86v22A57.74,57.74,0,0,0,283.3,371Z"/><path class="cls-7" d="M399.44,53.81h-9.55V44.26a11,11,0,1,0-22,0v9.55h-9.55a11,11,0,0,0,0,22h9.55v9.54a11,11,0,1,0,22,0V75.84h9.55a11,11,0,0,0,0-22Z"/><path class="cls-8" d="M290.75,243.27a11,11,0,0,1-4.24-21.18L357,192.71a11,11,0,1,1,8.47,20.34L295,242.42A11,11,0,0,1,290.75,243.27Z"/><path class="cls-8" d="M255.51,231.53a10.73,10.73,0,0,1-2.56-.31A11,11,0,0,1,244.78,218L274.16,94.58a11,11,0,1,1,21.43,5.11L266.22,223.06A11,11,0,0,1,255.51,231.53Z"/><path class="cls-9" d="M208.49,231.52a11,11,0,0,1-10.89-9.46l-11.75-82.24a11,11,0,1,1,21.81-3.12L219.41,219a11,11,0,0,1-9.35,12.46A10.45,10.45,0,0,1,208.49,231.52Z"/><path class="cls-9" d="M161.5,243.27a11,11,0,0,1-7.79-3.22l-70.5-70.5A11,11,0,1,1,98.79,154l70.5,70.5a11,11,0,0,1-7.79,18.8Z"/><circle class="cls-10" cx="61.63" cy="226.38" r="11.02"/><circle class="cls-9" cx="232" cy="73.63" r="11.02"/><circle class="cls-11" cx="331.87" cy="138.26" r="11.02"/><path class="cls-8" d="M243,73.63a11,11,0,0,0-11-11v22A11,11,0,0,0,243,73.63Z"/><path class="cls-12" d="M79.25,96.4a34.52,34.52,0,1,1,34.52-34.52A34.55,34.55,0,0,1,79.25,96.4Z"/></g></g></svg>